<?xml version="1.0" standalone="no"?>
<!DOCTYPE svg PUBLIC "-//W3C//DTD SVG 20010904//EN"
 "http://www.w3.org/TR/2001/REC-SVG-20010904/DTD/svg10.dtd">
<svg version="1.0" xmlns="http://www.w3.org/2000/svg"
 width="439.000000pt" height="568.000000pt" viewBox="0 0 439.000000 568.000000"
 preserveAspectRatio="xMidYMid meet">

<g transform="translate(0.000000,568.000000) scale(0.100000,-0.100000)"
fill="#000000" stroke="none">
<path d="M230 5638 c62 -49 221 -228 214 -240 -3 -4 3 -8 13 -8 10 0 35 -17
56 -36 l39 -36 -34 -37 c-30 -33 -31 -34 -2 -8 16 15 37 27 45 27 21 0 59 -42
59 -66 0 -16 2 -16 10 -4 8 12 22 3 77 -50 67 -65 176 -159 201 -174 30 -18 6
7 -70 72 -46 39 -112 99 -148 132 -36 34 -75 69 -87 77 -35 24 -28 44 38 107
33 32 57 61 54 65 -4 3 -12 -2 -19 -12 -7 -9 -19 -17 -25 -17 -7 0 -10 -4 -7
-8 3 -5 -15 -28 -39 -51 l-44 -43 -40 32 c-22 18 -42 44 -46 58 -4 16 -9 22
-14 14 -4 -7 -36 21 -86 78 -79 89 -168 170 -188 170 -5 0 14 -19 43 -42z"/>
<path d="M390 5664 c15 -21 96 -90 156 -131 16 -12 47 -23 67 -25 34 -3 43 3
126 82 48 47 87 87 85 89 -2 2 -39 -28 -83 -68 -43 -39 -84 -71 -90 -71 -6 0
-11 -4 -11 -10 0 -19 -58 -10 -96 16 -21 15 -68 52 -104 83 -35 31 -58 46 -50
35z"/>
<path d="M878 5612 c-35 -37 -72 -86 -82 -107 -10 -22 -23 -46 -29 -52 -5 -7
-11 -39 -14 -70 -5 -74 16 -131 67 -177 38 -34 158 -102 166 -93 2 2 -20 14
-49 28 -73 34 -154 112 -168 162 -10 37 -5 103 11 137 52 111 91 163 165 217
21 15 25 22 14 22 -9 1 -45 -30 -81 -67z"/>
<path d="M1595 5669 c-4 -6 -5 -12 -2 -15 2 -3 7 2 10 11 7 17 1 20 -8 4z"/>
<path d="M2030 5678 c0 -4 11 -28 25 -54 52 -98 17 -207 -89 -278 -30 -20 -62
-36 -70 -36 -9 0 -16 -4 -16 -9 0 -14 -141 -54 -209 -59 -52 -4 -66 -1 -73 12
-11 19 -28 21 -28 3 0 -8 16 -19 36 -25 45 -13 130 -1 221 33 36 14 68 23 70
21 3 -2 12 3 22 12 10 10 38 31 64 49 96 66 134 182 88 269 -25 47 -41 71 -41
62z"/>
<path d="M2670 5669 c0 -17 -60 -79 -77 -79 -6 0 -16 -6 -22 -14 -7 -8 -37
-24 -69 -37 -31 -12 -61 -26 -67 -31 -5 -5 15 1 45 13 30 12 71 28 90 35 19 7
31 13 26 14 -5 0 9 13 32 29 38 28 61 65 48 78 -3 4 -6 0 -6 -8z"/>
<path d="M2780 5670 c0 -18 -80 -98 -130 -130 -62 -40 -204 -100 -236 -100
-15 0 -24 -6 -24 -15 0 -17 11 -19 26 -6 5 4 41 20 79 35 110 41 219 109 260
162 32 43 42 64 30 64 -3 0 -5 -5 -5 -10z"/>
<path d="M2880 5640 c-1 -25 -2 -62 -1 -82 2 -26 -2 -38 -10 -38 -10 0 -10 -3
-1 -12 7 -7 13 -35 14 -62 l1 -51 6 60 c3 33 3 98 0 145 -4 60 -7 72 -9 40z"/>
<path d="M2999 5664 c16 -34 99 -120 152 -160 30 -21 86 -48 139 -65 96 -31
120 -35 120 -19 0 6 -15 10 -34 10 -44 0 -172 45 -211 75 -30 22 -130 122
-160 160 -16 20 -16 20 -6 -1z"/>
<path d="M51 5660 c132 -21 239 -99 278 -204 11 -31 21 -72 21 -90 0 -39 -18
-96 -31 -96 -5 0 -9 -9 -9 -21 0 -27 -104 -135 -155 -162 -22 -11 -67 -29
-100 -39 -58 -18 -58 -18 -15 -13 68 8 163 60 217 120 96 103 97 105 97 215 0
51 -6 76 -26 115 -53 101 -163 174 -272 181 l-61 3 56 -9z"/>
<path d="M1739 5641 c-51 -52 -34 -136 26 -129 24 2 31 8 32 28 3 25 3 25 -7
3 -19 -45 -70 -22 -70 32 0 50 24 75 74 75 68 0 115 -63 102 -135 -9 -47 -70
-113 -112 -121 -98 -18 -197 80 -197 196 0 47 -1 51 -9 25 -21 -76 45 -194
125 -224 77 -29 163 11 191 88 9 25 16 57 16 71 0 55 -65 120 -120 120 -12 0
-35 -13 -51 -29z"/>
<path d="M3060 5660 c0 -34 109 -118 198 -153 63 -25 51 -14 -25 23 -84 41
-131 76 -155 115 -10 17 -18 23 -18 15z"/>
<path d="M2810 5591 c0 -80 -87 -134 -272 -166 -44 -8 -84 -17 -87 -21 -7 -7
75 5 149 22 30 7 58 10 62 8 5 -3 8 -2 8 3 0 4 20 16 45 26 52 22 105 78 105
112 0 13 3 30 6 39 3 9 1 16 -5 16 -6 0 -11 -17 -11 -39z"/>
<path d="M2935 5605 c3 -14 7 -36 10 -48 17 -86 140 -150 307 -161 l83 -5 -95
13 c-104 14 -138 23 -159 39 -7 6 -19 12 -27 13 -20 3 -69 45 -88 76 -9 14
-16 42 -16 62 0 20 -5 36 -10 36 -6 0 -8 -11 -5 -25z"/>
<path d="M0 5575 c0 -8 5 -15 11 -15 5 0 7 -4 4 -10 -8 -13 1 -13 24 2 25 15
103 -6 144 -41 36 -30 66 -94 67 -139 0 -18 -11 -54 -24 -80 -39 -77 -97 -120
-178 -132 l-53 -8 45 -1 c35 -1 58 7 100 32 152 91 158 285 11 360 -30 15 -68
27 -83 27 -16 0 -38 5 -49 10 -15 8 -19 7 -19 -5z"/>
<path d="M3410 5485 c-7 -9 -8 -15 -2 -15 5 0 12 7 16 15 3 8 4 15 2 15 -2 0
-9 -7 -16 -15z"/>
<path d="M4032 5489 c9 -27 59 -54 97 -53 39 1 155 33 147 41 -2 2 -31 -4 -66
-13 -51 -15 -65 -15 -82 -5 -11 7 -17 8 -13 2 13 -22 -37 -10 -61 15 -15 14
-24 20 -22 13z"/>
<path d="M3976 5444 c4 -20 1 -36 -9 -45 -8 -8 -18 -25 -21 -37 -4 -12 -16
-27 -27 -32 -10 -6 -19 -16 -19 -22 0 -7 12 0 28 14 15 14 36 30 47 36 11 6
15 12 8 12 -8 0 -8 9 -1 34 8 23 7 39 -1 52 -9 16 -10 14 -5 -12z"/>
<path d="M4237 5403 c-52 -43 -70 -78 -64 -119 4 -27 4 -26 6 6 2 40 26 80 34
58 3 -7 6 -3 6 9 1 12 17 34 39 52 20 17 34 30 30 31 -4 0 -27 -17 -51 -37z"/>
<path d="M4023 5410 c1 -11 9 -21 19 -23 20 -6 24 -42 6 -51 -7 -3 -3 -3 9 -1
16 4 27 -2 43 -25 12 -16 26 -30 32 -30 6 0 6 6 -2 15 -7 8 -9 15 -4 16 5 0
-1 4 -13 9 -13 5 -23 16 -23 24 0 16 35 40 48 33 4 -2 15 4 25 15 22 24 11 23
-37 -3 -43 -23 -66 -19 -66 10 0 10 -9 21 -19 24 -14 3 -19 0 -18 -13z"/>
<path d="M18 5403 c-32 -8 -19 -19 17 -15 40 5 75 -15 53 -29 -10 -7 -9 -9 4
-9 25 0 28 -12 17 -53 -11 -40 -57 -73 -90 -64 -11 3 -19 0 -19 -5 0 -19 73 1
99 27 20 20 26 35 26 73 0 26 -3 48 -8 49 -4 2 -20 9 -37 18 -30 15 -33 16
-62 8z"/>
<path d="M2879 5379 c-1 -8 -1 -33 0 -56 2 -23 -2 -51 -9 -62 -6 -12 -7 -21
-1 -21 5 0 10 -39 10 -87 1 -47 3 -89 6 -91 5 -5 6 37 7 251 1 37 -2 70 -6 74
-3 3 -7 0 -7 -8z"/>
<path d="M2473 5372 c-84 -1 -133 -6 -133 -13 0 -7 43 -10 125 -8 84 1 129 -2
138 -10 12 -9 16 -8 20 3 5 11 24 14 86 12 45 -1 81 2 81 6 0 4 -36 8 -79 8
-44 0 -85 1 -93 3 -7 1 -73 1 -145 -1z"/>
<path d="M3053 5372 c-40 -2 -73 -7 -73 -12 0 -9 149 -19 165 -10 6 3 69 5
140 5 72 0 132 4 135 8 5 8 -241 14 -367 9z"/>
<path d="M2938 5363 c7 -3 16 -2 19 1 4 3 -2 6 -13 5 -11 0 -14 -3 -6 -6z"/>
<path d="M3990 5311 c-27 -26 -30 -31 -11 -21 14 7 35 16 47 19 18 5 20 9 11
21 -10 13 -17 10 -47 -19z"/>
<path d="M19 5299 c-13 -11 -17 -17 -9 -13 8 5 23 7 33 6 10 -2 17 3 17 12 0
22 -13 20 -41 -5z"/>
<path d="M3149 5278 c-76 -37 -148 -108 -184 -178 -14 -27 -22 -50 -17 -50 4
0 14 17 22 37 20 57 126 158 202 192 34 16 58 30 52 30 -6 1 -40 -13 -75 -31z"/>
<path d="M2552 5290 c128 -21 238 -117 240 -211 1 -16 5 -29 10 -29 12 0 0 56
-21 96 -18 36 -87 114 -99 114 -5 0 -23 7 -40 16 -18 8 -58 17 -89 19 l-58 4
57 -9z"/>
<path d="M4020 5282 l-35 -4 39 -13 c22 -8 44 -11 49 -8 4 3 20 -6 34 -18 16
-15 24 -18 21 -9 -3 8 -18 22 -34 30 -16 8 -31 17 -34 20 -3 3 -21 3 -40 2z"/>
<path d="M470 5255 c0 -24 -132 -153 -202 -198 -70 -45 -204 -112 -243 -122
-17 -4 -25 -9 -19 -12 45 -16 301 133 399 232 38 40 75 74 82 76 8 3 8 9 -3
23 -13 19 -14 19 -14 1z"/>
<path d="M3277 5216 c-60 -25 -72 -33 -122 -78 -16 -16 -33 -28 -36 -28 -4 0
-15 -12 -24 -27 -17 -27 -17 -27 16 4 64 59 141 112 185 124 24 8 44 17 44 21
0 10 4 11 -63 -16z"/>
<path d="M2485 5220 c3 -5 14 -10 24 -10 48 0 169 -91 171 -127 0 -7 5 -13 11
-13 13 0 -12 42 -50 84 -26 28 -80 57 -134 70 -19 4 -26 3 -22 -4z"/>
<path d="M1982 5118 c7 -15 15 -23 17 -17 2 6 -4 18 -13 27 -15 15 -15 15 -4
-10z"/>
<path d="M2050 5085 c0 -32 3 -55 7 -51 7 7 5 97 -3 105 -2 2 -4 -22 -4 -54z"/>
<path d="M1907 5096 c20 -26 27 -28 17 -3 -3 8 -12 18 -20 21 -11 4 -10 0 3
-18z"/>
<path d="M533 5095 c-24 -7 -101 -45 -173 -85 -128 -71 -234 -114 -311 -126
-22 -4 -42 -11 -45 -16 -4 -6 1 -8 12 -4 11 3 39 10 64 15 86 19 162 51 288
120 196 108 225 115 332 82 35 -11 59 -16 54 -11 -14 13 -115 40 -148 39 -17
0 -50 -6 -73 -14z"/>
<path d="M2070 4995 l-105 -105 -44 46 c-24 25 -67 67 -95 92 l-51 47 50 -56
c28 -30 67 -70 88 -88 44 -39 46 -52 10 -84 -16 -13 -66 -64 -113 -113 l-85
-88 90 84 c49 47 100 97 113 113 13 15 29 27 35 27 7 0 59 -48 116 -106 57
-57 105 -103 107 -102 2 2 -46 54 -106 114 l-110 111 47 45 c72 68 168 168
162 168 -2 0 -52 -47 -109 -105z"/>
<path d="M1998 5062 c-3 -9 -1 -26 3 -37 6 -15 8 -11 8 18 1 40 -4 48 -11 19z"/>
<path d="M1931 5048 c1 -7 5 -24 9 -38 8 -24 8 -24 9 7 1 17 -3 35 -9 38 -5 3
-10 0 -9 -7z"/>
<path d="M485 4971 c-74 -27 -169 -74 -265 -130 -47 -28 -116 -60 -153 -72
-37 -12 -66 -24 -63 -26 9 -10 133 39 211 82 205 115 307 155 394 155 76 0
128 -19 220 -81 62 -40 69 -43 36 -15 -22 20 -67 50 -100 68 -52 28 -71 32
-145 35 -64 2 -98 -2 -135 -16z"/>
<path d="M2225 4955 c-16 -14 -25 -25 -19 -25 6 0 21 11 34 25 30 32 24 31
-15 0z"/>
<path d="M1726 4920 c12 -13 27 -21 33 -19 6 2 -4 12 -22 22 l-32 18 21 -21z"/>
<path d="M2090 4910 c-12 -8 -10 -10 8 -10 13 0 20 4 17 10 -7 12 -6 12 -25 0z"/>
<path d="M2138 4913 c7 -3 16 -2 19 1 4 3 -2 6 -13 5 -11 0 -14 -3 -6 -6z"/>
<path d="M1782 4894 c8 -7 88 -8 95 0 4 3 -18 6 -47 6 -29 0 -51 -3 -48 -6z"/>
<path d="M3897 4875 c4 -16 7 -61 7 -100 -1 -56 0 -65 8 -45 14 33 11 91 -8
137 -10 26 -12 28 -7 8z"/>
<path d="M3770 4887 c0 -4 9 -20 20 -35 19 -26 27 -61 30 -132 1 -28 3 -31 9
-15 10 24 8 46 -8 102 -10 37 -50 100 -51 80z"/>
<path d="M1668 4868 c15 -15 179 -25 192 -12 5 5 -24 8 -66 6 -41 -2 -89 1
-107 7 -26 9 -29 9 -19 -1z"/>
<path d="M2075 4863 c19 -11 58 -17 110 -19 l80 -2 -70 8 c-38 4 -86 12 -105
18 -47 16 -51 14 -15 -5z"/>
<path d="M3993 4845 c0 -22 2 -30 4 -17 2 12 2 30 0 40 -3 9 -5 -1 -4 -23z"/>
<path d="M2300 4860 c-23 -7 -23 -8 -3 -9 12 -1 25 4 28 9 3 6 5 10 3 9 -2 -1
-14 -5 -28 -9z"/>
<path d="M2066 4819 c3 -5 14 -14 24 -19 16 -8 18 -7 14 4 -3 8 -14 16 -25 19
-10 3 -17 1 -13 -4z"/>
<path d="M3620 4824 c0 -4 20 -34 45 -65 25 -32 45 -61 45 -66 0 -4 23 -33 51
-63 l51 -55 -43 65 c-24 36 -49 69 -55 75 -6 5 -30 34 -53 63 -22 30 -41 50
-41 46z"/>
<path d="M1800 4800 c-12 -8 -11 -10 7 -10 12 0 25 5 28 10 8 13 -15 13 -35 0z"/>
<path d="M4006 4689 c-80 -61 -146 -113 -146 -115 0 -8 20 6 66 43 23 18 46
33 53 33 6 0 11 4 11 9 0 4 38 37 85 72 79 58 91 69 81 69 -2 0 -69 -50 -150
-111z"/>
<path d="M1718 4783 c12 -2 32 -2 45 0 12 2 2 4 -23 4 -25 0 -35 -2 -22 -4z"/>
<path d="M2155 4769 c29 -13 60 -18 110 -17 l70 1 -80 7 c-44 3 -90 11 -102
18 -12 7 -25 12 -30 11 -4 0 10 -9 32 -20z"/>
<path d="M3969 4745 c-9 -25 -15 -45 -13 -45 12 0 40 58 35 72 -5 13 -10 6
-22 -27z"/>
<path d="M2000 4766 c0 -8 5 -18 10 -21 6 -3 10 1 10 9 0 8 -4 18 -10 21 -5 3
-10 -1 -10 -9z"/>
<path d="M1895 4735 c-5 -16 -35 -58 -68 -92 -33 -35 -56 -63 -50 -63 15 0 98
91 118 129 9 18 14 38 12 44 -3 7 -8 -1 -12 -18z"/>
<path d="M1951 4760 c-1 -3 -4 -19 -5 -37 -2 -18 -18 -58 -35 -89 -18 -31 -30
-58 -28 -60 7 -7 52 75 66 118 7 21 10 46 8 55 -3 10 -5 16 -6 13z"/>
<path d="M2018 4665 c-3 -38 -9 -79 -13 -90 -5 -13 -5 -17 2 -10 15 15 30 105
23 140 -5 22 -8 12 -12 -40z"/>
<path d="M1235 4680 c-3 -5 -4 -10 -1 -10 4 0 -39 -90 -94 -201 -56 -110 -97
-198 -93 -196 5 3 20 28 33 56 13 28 27 51 32 51 4 0 8 7 8 15 0 26 130 276
140 270 6 -3 10 1 10 9 0 18 -25 22 -35 6z"/>
<path d="M3500 4664 c0 -21 80 -74 112 -74 7 0 -10 11 -38 24 -29 13 -57 32
-63 43 -6 10 -11 13 -11 7z"/>
<path d="M4190 4594 c-25 -14 -34 -22 -20 -18 25 7 70 33 70 40 0 5 1 6 -50
-22z"/>
<path d="M3420 4590 c0 -11 89 -44 97 -36 3 3 0 6 -8 6 -8 0 -31 9 -52 19 -20
10 -37 15 -37 11z"/>
<path d="M3641 4590 c-9 -5 -7 -9 8 -13 12 -3 23 -2 26 3 7 11 -19 20 -34 10z"/>
<path d="M945 4559 c19 -17 38 -42 41 -55 3 -13 10 -24 14 -24 13 0 23 -37 30
-110 7 -63 7 -64 9 -15 0 28 -4 68 -11 90 -6 22 -12 43 -12 47 -1 12 -86 98
-96 98 -6 0 5 -14 25 -31z"/>
<path d="M3705 4580 c-3 -5 -2 -10 4 -10 5 0 13 5 16 10 3 6 2 10 -4 10 -5 0
-13 -4 -16 -10z"/>
<path d="M768 4573 c6 -2 18 -2 25 0 6 3 1 5 -13 5 -14 0 -19 -2 -12 -5z"/>
<path d="M828 4554 c12 -8 22 -23 22 -32 0 -13 2 -14 9 -4 6 11 13 7 30 -14
11 -14 21 -33 21 -40 0 -8 4 -14 9 -14 4 0 16 -26 25 -58 17 -62 33 -191 22
-181 -4 3 -24 57 -46 120 -22 63 -37 98 -34 79 6 -32 5 -33 -11 -20 -13 11
-11 4 7 -31 15 -29 23 -61 23 -96 0 -53 14 -51 16 2 0 24 5 18 24 -35 21 -61
23 -63 30 -37 10 37 -2 135 -25 208 -10 32 -16 59 -14 59 2 0 -4 8 -13 18 -40
41 -68 77 -65 85 1 4 -10 7 -25 7 l-27 0 22 -16z"/>
<path d="M3815 4557 c3 -7 -17 -28 -43 -47 -26 -19 -99 -75 -162 -123 -63 -49
-122 -92 -130 -97 -8 -5 -12 -11 -10 -14 3 -3 61 38 128 89 67 52 127 95 132
95 6 0 10 4 10 8 0 5 20 23 45 40 l46 32 24 -27 c14 -16 28 -38 31 -50 3 -13
10 -23 14 -23 4 0 41 -43 81 -96 41 -53 82 -106 93 -118 18 -21 18 -20 1 9
-10 17 -26 39 -36 50 -41 47 -127 170 -123 177 3 4 0 8 -6 8 -13 0 -57 48 -65
72 -3 9 -12 19 -20 22 -8 3 -12 0 -10 -7z"/>
<path d="M3985 4560 c20 -9 102 -14 94 -6 -2 3 -29 7 -59 10 -36 3 -48 2 -35
-4z"/>
<path d="M4108 4563 c6 -2 18 -2 25 0 6 3 1 5 -13 5 -14 0 -19 -2 -12 -5z"/>
<path d="M690 4545 c0 -2 15 -11 33 -19 41 -18 117 -83 117 -102 0 -8 5 -14
10 -14 19 0 10 16 -37 62 -41 40 -123 89 -123 73z"/>
<path d="M3560 4539 c47 -12 130 -13 140 -2 5 4 -33 9 -83 9 -70 1 -84 -1 -57
-7z"/>
<path d="M2598 4516 c-84 -31 -122 -76 -163 -192 -75 -213 33 -395 235 -393
151 0 242 80 257 223 8 76 -22 137 -81 165 -23 12 -48 21 -55 21 -7 0 -9 5 -5
11 5 8 1 8 -14 0 -11 -6 -30 -11 -42 -11 -35 0 -100 -39 -120 -73 -12 -19 -20
-50 -20 -75 0 -37 6 -50 35 -79 31 -31 40 -35 72 -30 70 12 115 83 77 121 -19
20 -35 20 -60 1 -23 -17 -12 -20 15 -3 15 9 23 9 36 -2 25 -21 15 -61 -24 -87
-46 -31 -77 -29 -113 7 -28 28 -30 35 -26 81 9 87 78 136 179 126 62 -7 93
-26 119 -77 55 -108 -14 -259 -135 -296 -106 -31 -207 -11 -272 56 -77 79 -92
174 -47 311 35 104 85 162 157 184 66 20 110 19 177 -5 66 -22 78 -19 18 5
-58 23 -154 29 -200 11z"/>
<path d="M3975 4505 c26 -22 55 -33 55 -21 0 2 -19 13 -42 25 l-43 20 30 -24z"/>
<path d="M2865 4460 c10 -11 21 -17 25 -15 11 7 139 -86 181 -131 20 -22 44
-52 52 -69 9 -16 16 -25 17 -19 1 29 -69 110 -143 165 -45 33 -90 67 -100 75
-9 8 -25 14 -34 14 -14 0 -14 -2 2 -20z"/>
<path d="M3647 4474 c-3 -3 -48 -10 -99 -14 l-93 -8 92 1 c58 1 97 7 105 15 6
6 10 12 7 12 -3 0 -8 -3 -12 -6z"/>
<path d="M4078 4463 c7 -3 16 -2 19 1 4 3 -2 6 -13 5 -11 0 -14 -3 -6 -6z"/>
<path d="M3960 4445 c18 -24 38 -41 65 -57 19 -11 -23 32 -61 62 -18 14 -18
14 -4 -5z"/>
<path d="M4128 4453 c12 -2 32 -2 45 0 12 2 2 4 -23 4 -25 0 -35 -2 -22 -4z"/>
<path d="M4243 4453 c15 -2 39 -2 55 0 15 2 2 4 -28 4 -30 0 -43 -2 -27 -4z"/>
<path d="M460 4403 c1 -9 70 -46 76 -40 2 2 -14 14 -36 26 -22 12 -40 19 -40
14z"/>
<path d="M3867 4380 c15 -69 7 -152 -21 -213 -14 -32 -22 -56 -17 -53 5 3 21
36 36 73 23 58 26 77 21 131 -3 34 -10 70 -16 80 -9 13 -10 9 -3 -18z"/>
<path d="M3717 4377 c-10 -37 -77 -109 -149 -159 -32 -23 -56 -43 -54 -46 7
-7 154 107 176 136 11 15 25 33 31 40 5 7 9 23 7 35 -3 20 -4 19 -11 -6z"/>
<path d="M3785 4364 c-9 -57 -17 -73 -75 -149 -29 -39 -40 -59 -25 -45 45 42
102 136 109 180 4 24 5 45 2 47 -3 3 -8 -12 -11 -33z"/>
<path d="M1418 4373 c6 -2 18 -2 25 0 6 3 1 5 -13 5 -14 0 -19 -2 -12 -5z"/>
<path d="M4065 4365 c27 -21 105 -42 185 -50 92 -10 71 1 -28 14 -46 6 -105
20 -130 31 -32 13 -41 15 -27 5z"/>
<path d="M1330 4360 c0 -6 11 -8 28 -4 39 10 40 14 4 14 -18 0 -32 -5 -32 -10z"/>
<path d="M1473 4363 c9 -2 23 -2 30 0 6 3 -1 5 -18 5 -16 0 -22 -2 -12 -5z"/>
<path d="M550 4355 c0 -3 51 -30 113 -61 61 -31 115 -61 118 -65 3 -5 15 -11
26 -13 11 -3 48 -18 82 -35 33 -17 61 -29 61 -26 0 2 -33 21 -72 41 -40 20
-76 42 -80 48 -4 6 -8 8 -8 3 0 -4 -54 20 -120 53 -66 33 -120 58 -120 55z"/>
<path d="M1288 4353 c6 -2 18 -2 25 0 6 3 1 5 -13 5 -14 0 -19 -2 -12 -5z"/>
<path d="M1179 4326 c-72 -30 -110 -56 -103 -68 4 -6 10 -4 16 6 11 20 37 34
118 63 36 12 56 22 45 22 -11 0 -45 -10 -76 -23z"/>
<path d="M1505 4321 c-18 -16 -109 -39 -180 -46 -95 -8 -148 -22 -228 -58 -45
-20 -66 -35 -63 -44 5 -13 -10 -18 -46 -15 -9 1 -22 -5 -28 -13 -10 -12 -9
-15 3 -15 19 0 37 -50 37 -104 0 -23 12 -72 26 -111 14 -38 25 -76 26 -82 1
-7 7 -13 14 -13 7 0 18 -16 24 -36 8 -24 15 -32 20 -24 6 9 17 6 42 -14 19
-14 39 -26 43 -26 5 0 -16 18 -46 39 -53 37 -56 42 -84 131 -16 51 -31 88 -32
83 -2 -5 6 -35 16 -66 11 -32 16 -55 11 -52 -13 8 -39 96 -39 135 -1 65 -5 95
-18 108 -27 28 -13 41 88 74 55 18 96 34 92 35 -5 2 -35 -6 -68 -17 -68 -23
-81 -20 -34 10 51 31 242 80 257 66 2 -3 -21 -12 -52 -22 -31 -10 -54 -19 -52
-22 2 -2 40 8 85 22 72 23 86 24 138 15 67 -13 88 -22 126 -57 15 -14 27 -20
27 -14 0 21 -80 66 -139 78 l-56 11 58 18 c31 10 57 22 57 27 0 11 -14 10 -25
-1z m-488 -323 c-3 -8 -6 -5 -6 6 -1 11 2 17 5 13 3 -3 4 -12 1 -19z"/>
<path d="M1010 4281 c-6 -12 -7 -21 -1 -21 10 0 24 30 17 37 -2 3 -9 -5 -16
-16z"/>
<path d="M1020 4232 c-21 -42 -22 -42 -16 -42 8 0 38 61 33 66 -2 2 -10 -8
-17 -24z"/>
<path d="M3120 4195 c0 -9 5 -15 11 -13 6 2 11 8 11 13 0 5 -5 11 -11 13 -6 2
-11 -4 -11 -13z"/>
<path d="M1146 4171 c-32 -11 -63 -24 -69 -30 -14 -14 5 -15 19 -2 16 16 116
41 163 41 60 0 175 -24 253 -54 102 -38 105 -39 78 -22 -14 9 -68 30 -120 47
-125 40 -240 48 -324 20z"/>
<path d="M840 4111 c0 -4 -35 -21 -77 -37 -83 -30 -184 -37 -303 -22 -40 5
-47 4 -25 -2 17 -5 64 -13 105 -16 l75 -7 -95 -33 c-52 -18 -90 -33 -83 -33 6
-1 57 15 113 34 56 20 124 40 151 45 70 13 186 65 164 74 -22 8 -25 8 -25 -3z"/>
<path d="M896 4105 c8 -21 -9 -40 -80 -88 -105 -71 -162 -87 -346 -96 -102 -5
-117 -7 -80 -13 25 -4 83 -4 130 1 47 5 89 7 94 4 4 -3 11 -1 15 3 3 5 32 17
63 27 92 28 240 139 224 166 -11 17 -26 13 -20 -4z"/>
<path d="M919 4038 c-23 -46 -84 -165 -135 -266 -51 -101 -89 -180 -83 -177 5
4 48 83 94 176 47 93 90 169 96 169 5 0 7 4 4 10 -3 5 4 29 17 52 34 65 58
118 53 118 -3 0 -23 -37 -46 -82z"/>
<path d="M1020 4115 c0 -2 23 -16 52 -31 28 -14 58 -32 66 -40 7 -8 20 -14 28
-14 22 0 314 -149 314 -160 0 -6 7 -10 15 -10 8 0 15 4 15 9 0 5 -7 14 -15 21
-8 7 -15 10 -15 6 0 -8 -275 129 -312 156 -16 11 -28 16 -28 13 0 -4 -25 7
-55 24 -55 31 -65 35 -65 26z"/>
<path d="M1064 4004 c9 -69 40 -114 104 -156 61 -39 123 -68 144 -67 7 0 -5 7
-26 15 -55 20 -136 72 -169 108 -31 35 -51 97 -42 126 4 12 2 20 -6 20 -8 0
-10 -13 -5 -46z"/>
<path d="M4302 4000 c5 -16 76 -76 82 -69 2 2 -16 22 -41 44 -26 21 -44 33
-41 25z"/>
<path d="M943 3945 c0 -27 2 -38 4 -22 2 15 2 37 0 50 -2 12 -4 0 -4 -28z"/>
<path d="M809 3934 c-29 -31 -145 -88 -164 -80 -8 3 -17 1 -20 -4 -4 -6 -54
-11 -113 -11 -85 -1 -99 -3 -67 -10 36 -7 64 -7 176 5 66 7 236 102 217 121
-2 3 -15 -7 -29 -21z"/>
<path d="M4274 3885 c16 -35 60 -77 96 -94 21 -10 20 -9 -5 11 -38 29 -65 56
-88 88 l-17 25 14 -30z"/>
<path d="M951 3885 c-1 -5 9 -38 21 -73 16 -45 37 -78 73 -116 27 -29 36 -36
18 -17 -38 44 -70 100 -94 166 -9 28 -18 46 -18 40z"/>
<path d="M4316 3741 c-3 -5 1 -11 9 -15 8 -3 15 -1 15 4 0 5 12 11 28 13 22 3
20 4 -10 6 -20 0 -39 -3 -42 -8z"/>
<path d="M4290 3704 c0 -7 82 -45 91 -42 6 2 -12 13 -40 25 -28 12 -51 20 -51
17z"/>
<path d="M3093 3482 c-40 -83 -64 -123 -78 -126 -14 -4 -16 -8 -8 -14 9 -6 5
-24 -18 -72 -17 -36 -35 -66 -40 -68 -11 -4 -12 -32 -1 -32 4 1 25 39 46 85
21 46 43 82 47 79 5 -3 9 4 9 16 0 11 25 70 56 131 30 61 53 114 50 117 -3 3
-32 -49 -63 -116z"/>
<path d="M2919 3484 c-38 -39 -75 -59 -146 -79 -26 -7 -38 -14 -27 -14 12 -1
40 6 63 14 22 8 41 12 41 9 0 -10 91 69 101 88 14 26 7 22 -32 -18z"/>
<path d="M3179 3520 c-18 -144 -17 -315 3 -381 18 -58 70 -139 90 -139 6 0 -1
11 -16 25 -38 35 -65 101 -75 186 -11 80 -3 244 11 273 7 12 6 22 -1 29 -6 6
-11 9 -12 7z"/>
<path d="M2984 3421 c-56 -85 -163 -138 -258 -128 -36 3 -44 2 -31 -6 21 -11
117 -4 160 13 17 6 32 11 35 11 11 -1 102 96 117 122 23 45 11 39 -23 -12z"/>
<path d="M3129 3443 c-48 -124 -63 -285 -33 -348 13 -27 81 -82 90 -72 2 2
-13 15 -33 28 -50 32 -63 61 -63 144 0 67 10 117 44 228 16 51 12 65 -5 20z"/>
<path d="M260 3445 c0 -2 18 -14 40 -25 35 -18 40 -18 40 -4 0 8 -6 14 -12 11
-7 -2 -25 2 -40 10 -16 7 -28 11 -28 8z"/>
<path d="M3239 3428 c0 -13 -4 -56 -8 -95 -4 -40 -3 -73 1 -73 4 0 8 -12 8
-26 0 -27 26 -90 41 -100 5 -3 -1 14 -13 37 -19 38 -22 58 -22 161 1 65 -1
118 -3 118 -1 0 -3 -10 -4 -22z"/>
<path d="M254 3398 c16 -21 30 -38 33 -38 8 0 -16 36 -38 55 -19 16 -18 13 5
-17z"/>
<path d="M375 3415 c-16 -8 -23 -14 -14 -15 8 0 24 7 35 15 23 18 18 18 -21 0z"/>
<path d="M437 3403 c-4 -3 -7 -13 -7 -22 1 -13 3 -13 11 2 11 19 8 33 -4 20z"/>
<path d="M316 3365 c3 -7 12 -16 19 -19 9 -3 12 0 9 9 -3 7 -12 16 -19 19 -9
3 -12 0 -9 -9z"/>
<path d="M380 3360 c0 -11 -4 -20 -10 -20 -5 0 -10 -4 -10 -10 0 -5 5 -10 11
-10 6 0 27 -12 47 -26 l37 -26 -37 34 c-27 25 -34 38 -27 48 12 20 11 30 -1
30 -5 0 -10 -9 -10 -20z"/>
<path d="M1589 3369 c-98 -15 -171 -72 -239 -188 -61 -105 -81 -183 -90 -363
-11 -201 -26 -255 -88 -317 -29 -28 -70 -56 -105 -70 -32 -13 -56 -26 -53 -28
3 -3 39 11 81 32 132 63 161 128 174 380 7 129 14 175 35 240 42 130 124 240
211 281 98 47 208 26 332 -62 123 -88 187 -218 188 -379 0 -49 -3 -108 -7
-130 -6 -34 -6 -36 3 -15 6 14 13 61 16 105 10 147 -40 280 -143 381 -97 96
-219 148 -315 133z"/>
<path d="M427 3348 c-2 -8 2 -23 10 -33 13 -19 14 -18 7 10 -8 37 -10 39 -17
23z"/>
<path d="M295 3305 c0 -24 3 -38 7 -32 10 16 10 65 1 70 -5 3 -8 -14 -8 -38z"/>
<path d="M4334 3293 c-88 -90 -145 -187 -189 -323 -38 -118 -97 -232 -137
-265 -50 -43 -115 -67 -190 -73 -38 -3 -68 -9 -68 -14 0 -6 21 -7 53 -3 194
24 271 101 352 351 41 126 93 217 177 308 68 75 70 89 2 19z"/>
<path d="M2655 3310 c-3 -5 -1 -10 4 -10 6 0 11 5 11 10 0 6 -2 10 -4 10 -3 0
-8 -4 -11 -10z"/>
<path d="M341 3301 c-10 -6 -10 -10 -1 -16 13 -8 24 -1 19 14 -3 6 -10 7 -18
2z"/>
<path d="M340 3244 c-16 -10 -18 -13 -5 -8 11 3 36 6 55 5 26 -1 31 1 20 9
-21 14 -41 12 -70 -6z"/>
<path d="M2631 3226 c10 -9 89 -46 89 -41 0 5 -75 45 -86 45 -4 0 -5 -2 -3 -4z"/>
<path d="M1525 3204 c-71 -37 -122 -114 -171 -259 -30 -91 -35 -121 -40 -237
-8 -176 -15 -203 -72 -257 -26 -24 -38 -39 -27 -33 37 20 83 77 94 117 6 22
15 108 20 190 13 199 54 323 138 416 72 80 128 87 246 31 113 -53 186 -133
233 -258 75 -199 -30 -357 -266 -404 -36 -7 -81 -13 -100 -14 -19 0 -37 -4
-40 -7 -3 -4 -21 -14 -40 -23 -19 -9 -24 -13 -10 -9 14 4 35 7 48 6 12 0 22 2
22 6 0 4 33 14 73 21 121 22 186 47 239 91 110 93 136 202 79 346 -54 136
-141 222 -277 273 -65 24 -109 25 -149 4z"/>
<path d="M4316 3110 c-74 -94 -111 -165 -156 -298 -45 -136 -75 -179 -152
-219 -35 -19 -52 -31 -38 -27 95 24 151 91 201 241 49 150 98 239 183 331 21
23 36 45 33 48 -3 3 -35 -31 -71 -76z"/>
<path d="M2730 3170 c0 -5 7 -10 15 -10 8 0 23 -8 33 -18 10 -10 23 -17 29
-15 7 3 25 -3 42 -12 17 -8 31 -14 31 -11 0 8 -75 49 -95 53 -11 2 -24 8 -29
13 -13 13 -26 13 -26 0z"/>
<path d="M2603 3146 c32 -30 64 -91 81 -158 7 -28 16 -46 19 -41 16 26 -85
223 -115 223 -6 0 1 -11 15 -24z"/>
<path d="M1580 3130 c0 -4 -16 -11 -35 -14 -45 -9 -100 -65 -134 -136 -24 -51
-26 -65 -26 -195 0 -108 5 -151 18 -189 10 -27 16 -55 13 -62 -3 -7 0 -14 6
-16 6 -2 12 -19 13 -38 1 -19 7 -46 13 -60 6 -14 18 -47 26 -75 9 -33 13 -40
12 -20 -2 17 -5 37 -9 45 -14 34 -37 141 -32 150 3 5 1 11 -4 14 -47 29 -65
348 -25 436 12 25 33 60 49 78 81 96 212 79 321 -41 101 -111 137 -236 96
-330 -38 -87 -158 -147 -260 -132 -93 14 -162 122 -162 254 1 109 44 176 130
202 47 14 73 8 134 -32 59 -40 93 -89 106 -157 10 -54 -1 -109 -20 -97 -6 3
-10 -5 -10 -19 0 -31 -54 -75 -103 -83 -81 -13 -152 46 -164 136 -7 52 1 83
33 120 64 77 177 -13 132 -106 -11 -23 -20 -28 -48 -28 -42 0 -67 35 -56 79
10 41 42 31 38 -12 -1 -18 2 -32 8 -32 11 0 13 39 4 64 -8 22 -41 20 -54 -3
-22 -43 -5 -86 47 -115 23 -13 63 16 74 54 22 72 -24 140 -93 140 -79 0 -122
-120 -79 -216 50 -110 173 -125 257 -30 45 50 48 56 47 113 0 92 -63 182 -160
228 -76 36 -166 -3 -209 -91 -32 -66 -37 -165 -10 -228 9 -21 16 -48 16 -59 0
-11 2 -18 5 -15 3 3 21 -10 40 -28 45 -42 95 -58 160 -51 60 6 100 24 150 69
86 75 98 179 36 302 -40 77 -111 155 -169 185 -54 28 -122 50 -122 41z"/>
<path d="M4353 3082 c-83 -112 -139 -326 -133 -506 0 -23 -5 -43 -12 -47 -18
-12 -68 -11 -68 1 0 6 -5 10 -11 10 -5 0 -7 -5 -3 -11 4 -8 -22 -9 -92 -5 -55
3 -126 2 -159 -3 -47 -7 -19 -9 135 -10 141 -1 200 -4 209 -13 11 -11 13 -10
7 0 -6 9 11 12 74 11 45 -1 84 2 87 5 7 7 -31 9 -104 6 l-53 -2 0 42 c0 25 4
39 10 35 12 -8 13 7 2 21 -5 5 -5 52 -1 104 11 141 60 283 124 359 15 17 23
31 18 31 -5 0 -19 -13 -30 -28z"/>
<path d="M2890 3085 c0 -20 -32 -85 -42 -85 -4 0 -8 -7 -8 -15 0 -27 -50 -116
-61 -109 -7 4 -9 -1 -7 -12 3 -11 -24 -77 -60 -147 -35 -71 -62 -131 -59 -134
8 -8 28 7 22 17 -7 11 104 233 122 243 7 5 11 12 8 17 -6 10 89 205 105 215
12 7 4 25 -11 25 -5 0 -9 -7 -9 -15z"/>
<path d="M2985 3048 c22 -11 44 -27 48 -35 5 -7 12 -11 17 -8 4 3 41 -12 81
-32 41 -21 77 -39 82 -41 4 -2 7 4 7 13 0 9 -4 14 -9 10 -13 -7 -164 69 -155
78 4 4 -4 7 -17 7 -13 1 -35 7 -49 15 -14 8 -29 14 -35 14 -5 0 8 -9 30 -21z"/>
<path d="M2546 3020 c2 -14 12 -56 20 -95 9 -39 14 -99 12 -137 -2 -37 0 -62
4 -55 18 28 8 162 -17 237 -14 41 -22 64 -19 50z"/>
<path d="M3270 2969 c0 -5 5 -7 10 -4 6 3 10 8 10 11 0 2 -4 4 -10 4 -5 0 -10
-5 -10 -11z"/>
<path d="M4368 2958 c-15 -23 -35 -78 -25 -68 8 8 48 90 43 90 -2 0 -10 -10
-18 -22z"/>
<path d="M2976 2935 c-22 -9 -47 -22 -56 -30 -9 -8 -20 -15 -24 -15 -20 0
-108 -112 -140 -180 -18 -40 -8 -25 46 60 43 69 133 143 195 160 37 11 50 10
85 -4 23 -8 44 -14 46 -11 7 6 -47 26 -83 31 -16 2 -48 -3 -69 -11z"/>
<path d="M2702 2885 c-1 -27 -5 -61 -8 -75 -5 -21 -4 -22 6 -7 6 9 9 43 7 75
l-3 57 -2 -50z"/>
<path d="M3250 2920 c0 -5 5 -10 11 -10 5 0 7 5 4 10 -3 6 -8 10 -11 10 -2 0
-4 -4 -4 -10z"/>
<path d="M4329 2878 c-5 -13 -13 -198 -8 -198 3 0 11 -10 17 -22 10 -21 11
-20 4 7 -4 17 -7 72 -7 123 0 79 -1 101 -6 90z"/>
<path d="M195 2849 c17 -13 47 -41 69 -63 21 -22 34 -31 28 -20 -14 25 -59 67
-97 89 l-30 17 30 -23z"/>
<path d="M322 2845 c0 -16 4 -43 8 -60 11 -42 11 -1 1 50 -7 34 -9 35 -9 10z"/>
<path d="M3220 2850 c0 -5 5 -10 10 -10 6 0 10 5 10 10 0 6 -4 10 -10 10 -5 0
-10 -4 -10 -10z"/>
<path d="M3060 2829 c-120 -31 -189 -70 -274 -156 -78 -78 -87 -93 -61 -93 8
0 15 8 15 19 0 23 126 144 177 169 55 28 134 52 216 67 46 9 59 13 37 14 -19
0 -69 -9 -110 -20z"/>
<path d="M462 2814 c-17 -14 -37 -35 -43 -47 l-10 -22 18 21 c10 12 32 33 48
48 39 33 30 33 -13 0z"/>
<path d="M3005 2766 c-27 -13 -59 -31 -70 -40 -18 -14 -18 -15 -2 -16 9 0 17
4 17 10 0 13 70 48 117 59 29 7 32 9 13 10 -14 0 -47 -10 -75 -23z"/>
<path d="M151 2777 c2 -2 18 -11 34 -21 l30 -17 -24 20 c-13 12 -28 21 -34 21
-6 0 -8 -1 -6 -3z"/>
<path d="M515 2743 c-38 -20 -75 -53 -75 -67 0 -6 10 1 23 16 12 14 40 36 62
47 22 11 36 20 30 20 -5 0 -23 -7 -40 -16z"/>
<path d="M342 2725 c0 -16 2 -22 5 -12 2 9 2 23 0 30 -3 6 -5 -1 -5 -18z"/>
<path d="M245 2708 c17 -20 33 -37 38 -37 16 -2 4 15 -31 44 l-37 30 30 -37z"/>
<path d="M396 2714 c-4 -14 -5 -28 -3 -31 3 -2 8 8 11 23 4 14 5 28 3 31 -3 2
-8 -8 -11 -23z"/>
<path d="M310 2708 c0 -7 5 -20 10 -28 8 -12 10 -11 10 7 0 12 -4 25 -10 28
-5 3 -10 0 -10 -7z"/>
<path d="M1976 2638 c-60 -123 -119 -172 -256 -216 -109 -35 -161 -61 -167
-82 -3 -11 -9 -20 -15 -20 -5 0 -5 -8 1 -18 5 -10 15 -50 22 -88 6 -38 15 -73
19 -77 4 -4 1 25 -7 65 -28 149 -26 152 143 208 111 37 173 75 215 132 32 44
94 166 88 172 -2 2 -22 -32 -43 -76z"/>
<path d="M613 2703 c9 -2 25 -2 35 0 9 3 1 5 -18 5 -19 0 -27 -2 -17 -5z"/>
<path d="M2870 2681 c-19 -16 -32 -32 -29 -35 3 -3 21 10 39 29 41 42 37 45
-10 6z"/>
<path d="M558 2693 c6 -2 18 -2 25 0 6 3 1 5 -13 5 -14 0 -19 -2 -12 -5z"/>
<path d="M345 2673 c2 -10 7 -32 10 -49 l7 -31 -114 -18 c-62 -10 -122 -22
-133 -27 -17 -7 -16 -8 5 -4 14 2 78 13 143 22 97 15 116 21 111 34 -3 8 -8
32 -11 53 -3 20 -9 37 -14 37 -4 0 -6 -8 -4 -17z"/>
<path d="M503 2678 c-25 -12 -41 -40 -17 -31 7 3 14 8 14 13 0 4 10 12 23 18
12 6 18 11 12 11 -5 0 -20 -5 -32 -11z"/>
<path d="M128 2673 c12 -2 32 -2 45 0 12 2 2 4 -23 4 -25 0 -35 -2 -22 -4z"/>
<path d="M230 2657 c0 -3 12 -12 26 -22 15 -9 23 -12 20 -6 -7 11 -46 35 -46
28z"/>
<path d="M590 2630 c-34 -7 -34 -7 -5 -8 17 0 41 4 55 8 33 11 0 11 -50 0z"/>
<path d="M4359 2613 c12 -24 31 -39 31 -25 0 5 -10 17 -21 28 -22 19 -22 19
-10 -3z"/>
<path d="M528 2613 c7 -3 16 -2 19 1 4 3 -2 6 -13 5 -11 0 -14 -3 -6 -6z"/>
<path d="M439 2601 c12 -8 51 -4 51 5 0 2 -15 4 -32 4 -23 0 -29 -3 -19 -9z"/>
<path d="M398 2593 c7 -3 16 -2 19 1 4 3 -2 6 -13 5 -11 0 -14 -3 -6 -6z"/>
<path d="M510 2573 c8 -3 32 -14 53 -25 20 -10 37 -16 37 -13 0 7 -78 45 -92
44 -9 0 -8 -2 2 -6z"/>
<path d="M372 2540 c0 -14 2 -19 5 -12 2 6 2 18 0 25 -3 6 -5 1 -5 -13z"/>
<path d="M2760 2553 c0 -5 5 -15 10 -23 8 -12 10 -11 10 8 0 12 -4 22 -10 22
-5 0 -10 -3 -10 -7z"/>
<path d="M465 2540 c3 -5 10 -10 16 -10 5 0 9 5 9 10 0 6 -7 10 -16 10 -8 0
-12 -4 -9 -10z"/>
<path d="M199 2508 c-12 -23 -12 -23 10 -4 23 21 26 26 11 26 -5 0 -15 -10
-21 -22z"/>
<path d="M445 2520 c3 -5 11 -10 16 -10 6 0 7 5 4 10 -3 6 -11 10 -16 10 -6 0
-7 -4 -4 -10z"/>
<path d="M525 2507 c16 -15 38 -36 48 -49 l19 -23 -14 24 c-8 14 -30 36 -49
49 l-34 24 30 -25z"/>
<path d="M259 2507 c-9 -7 -20 -23 -24 -37 -9 -28 -7 -27 24 18 24 35 24 38 0
19z"/>
<path d="M378 2499 c-3 -8 -2 -23 2 -33 5 -15 8 -16 12 -5 3 8 2 23 -2 33 -5
15 -8 16 -12 5z"/>
<path d="M302 2475 c-7 -14 -11 -43 -11 -63 l2 -37 6 40 c4 22 11 50 15 63 10
30 2 28 -12 -3z"/>
<path d="M175 2469 c-4 -6 -5 -12 -2 -15 2 -3 7 2 10 11 7 17 1 20 -8 4z"/>
<path d="M4209 2444 c-2 -23 -2 -52 1 -65 6 -22 6 -23 12 -4 3 11 2 41 -2 65
l-6 45 -5 -41z"/>
<path d="M3900 2432 c-36 -8 -59 -17 -52 -19 7 -3 27 0 44 6 17 6 61 11 99 11
59 0 72 -3 100 -27 38 -32 74 -109 83 -178 6 -44 -8 -151 -28 -220 -4 -11 0
-6 8 10 8 17 20 60 27 97 16 88 -3 210 -38 248 -13 14 -23 28 -23 32 0 14 -68
46 -110 51 -25 2 -74 -2 -110 -11z"/>
<path d="M392 2420 c0 -14 2 -19 5 -12 2 6 2 18 0 25 -3 6 -5 1 -5 -13z"/>
<path d="M1362 2429 c-4 -3 -62 -24 -129 -45 -68 -21 -123 -42 -123 -45 0 -6
232 66 290 90 l25 10 -28 -2 c-15 -1 -31 -4 -35 -8z"/>
<path d="M4345 2393 c-40 -6 -80 -42 -81 -73 0 -14 -4 -61 -8 -105 -10 -105 1
-93 13 15 13 111 23 138 58 145 30 7 75 24 58 23 -5 -1 -23 -3 -40 -5z"/>
<path d="M1260 2317 c-39 -14 -121 -67 -104 -67 6 0 23 9 37 20 33 26 101 50
141 50 34 0 83 -30 114 -71 43 -54 64 -113 72 -198 l9 -86 -3 86 c-2 76 -7 95
-35 151 -56 108 -137 148 -231 115z"/>
<path d="M3210 2276 c0 -2 15 -6 34 -8 19 -2 32 0 30 4 -5 8 -64 12 -64 4z"/>
<path d="M3093 2240 c-40 -16 -84 -37 -98 -46 -14 -9 -25 -14 -25 -10 0 3 -8
-2 -18 -11 -11 -10 -40 -36 -67 -57 -86 -71 -117 -182 -75 -274 24 -54 122
-158 173 -184 123 -63 262 -15 326 113 42 85 43 156 2 220 -51 80 -97 109
-173 109 -41 0 -108 -32 -108 -51 0 -6 -4 -8 -8 -5 -7 4 -26 -51 -38 -109 l-4
-20 9 20 c5 11 12 31 15 45 3 15 23 45 45 69 40 43 41 43 99 39 176 -13 242
-228 114 -370 -51 -57 -86 -72 -167 -72 -85 -1 -137 25 -210 106 -89 99 -107
181 -59 276 25 50 111 132 139 132 7 0 18 7 25 15 15 18 83 50 160 76 30 10
46 18 35 18 -11 0 -53 -13 -92 -29z"/>
<path d="M3296 2261 c-4 -7 -5 -15 -2 -18 9 -9 19 4 14 18 -4 11 -6 11 -12 0z"/>
<path d="M440 1971 c0 -7 16 -19 35 -27 42 -17 58 -18 52 -1 -2 6 -15 11 -27
9 -13 -1 -31 5 -42 14 -11 11 -18 13 -18 5z"/>
<path d="M3112 1958 c-7 -7 -12 -21 -11 -32 1 -18 2 -17 8 4 10 37 57 41 71 5
15 -40 12 -70 -11 -99 -40 -51 -135 -26 -163 43 -8 20 -15 30 -15 23 -2 -26
30 -72 59 -87 33 -17 83 -20 109 -5 40 21 51 108 20 147 -14 16 -51 17 -67 1z"/>
<path d="M548 1943 c7 -3 16 -2 19 1 4 3 -2 6 -13 5 -11 0 -14 -3 -6 -6z"/>
<path d="M399 1902 c5 -34 6 -35 9 -8 2 16 0 32 -5 37 -5 5 -7 -7 -4 -29z"/>
<path d="M579 1923 c-13 -16 -12 -17 4 -4 9 7 17 15 17 17 0 8 -8 3 -21 -13z"/>
<path d="M624 1897 c-31 -36 -42 -85 -25 -114 8 -14 9 -9 4 20 -4 25 -2 37 6
37 7 0 10 4 7 9 -3 5 5 25 19 45 30 45 27 46 -11 3z"/>
<path d="M446 1905 c3 -8 14 -17 25 -20 25 -8 24 -31 -1 -45 -11 -6 -20 -8
-20 -5 0 3 -9 -4 -20 -15 -11 -11 -20 -22 -20 -25 0 -7 40 16 64 38 23 20 37
18 51 -9 6 -10 16 -20 23 -21 17 -4 15 4 -9 26 -21 19 -22 58 -2 54 6 -1 14 4
17 12 3 9 0 15 -8 15 -8 0 -16 -7 -20 -15 -7 -19 -32 -20 -43 -2 -12 20 -43
30 -37 12z"/>
<path d="M391 1852 c-1 -7 -5 -11 -10 -8 -5 3 -12 -5 -15 -19 -3 -13 -15 -29
-26 -35 -11 -6 -20 -16 -20 -23 0 -7 18 8 41 31 22 24 38 49 35 55 -3 8 -5 8
-5 -1z"/>
<path d="M405 1763 c-33 -14 -64 -29 -70 -34 -10 -11 6 -5 78 26 32 13 42 14
55 3 12 -10 14 -10 8 0 -13 21 36 14 61 -10 13 -12 23 -16 23 -10 0 14 -37 38
-70 45 -14 3 -50 -6 -85 -20z"/>
<path d="M4311 1570 c0 -14 6 -80 14 -145 18 -148 19 -158 3 -149 -8 5 -7 1 1
-10 14 -17 15 -17 28 0 15 21 17 38 4 29 -5 -3 -13 25 -17 62 -11 112 -31 240
-33 213z"/>
<path d="M0 1523 c0 -5 22 -6 49 -5 75 6 148 -20 208 -73 58 -51 134 -160 153
-219 16 -51 8 -141 -18 -192 -38 -74 -166 -174 -222 -174 -12 0 -19 -4 -16 -9
6 -9 -116 -61 -142 -61 -6 0 -12 -4 -12 -10 0 -5 30 2 67 16 38 14 82 31 98
37 56 20 176 108 208 154 43 60 55 97 56 168 2 135 -140 320 -276 361 -49 15
-153 19 -153 7z"/>
<path d="M3981 1422 c0 -18 6 -48 14 -68 18 -44 99 -148 132 -169 14 -9 22
-19 19 -22 -5 -5 98 -63 111 -63 5 1 -9 10 -29 21 -21 10 -45 30 -54 44 -9 14
-20 23 -24 20 -9 -6 -91 82 -127 137 -13 20 -28 58 -33 85 -6 39 -8 42 -9 15z"/>
<path d="M3790 1404 c0 -21 77 -130 122 -171 25 -23 73 -62 107 -86 35 -26 56
-47 48 -50 -6 -3 1 -6 16 -6 15 -1 46 -10 67 -21 22 -11 40 -17 40 -12 0 4
-16 14 -35 21 -19 7 -42 20 -51 29 -9 9 -23 17 -30 18 -44 7 -216 169 -258
244 -14 25 -26 40 -26 34z"/>
<path d="M1594 1369 c82 -51 76 -19 76 -401 l0 -343 -99 99 c-55 55 -98 103
-96 107 3 4 -5 9 -16 12 -12 3 -18 10 -15 16 3 5 0 11 -9 13 -8 2 -106 94
-218 206 -112 111 -208 202 -213 202 -4 0 87 -96 204 -213 117 -117 212 -219
212 -226 0 -7 5 -9 10 -6 6 3 10 -1 10 -9 0 -9 4 -15 9 -14 8 3 201 -178 201
-187 0 -3 -43 -5 -95 -5 -80 0 -93 2 -89 15 8 19 -3 19 -22 0 -24 -24 -258
-21 -357 4 -94 25 -190 63 -269 107 -34 19 -63 33 -65 30 -9 -9 139 -82 237
-117 l105 -38 -175 -2 c-227 -2 -200 -7 80 -14 285 -8 323 -8 503 0 81 4 147
5 147 1 0 -3 -48 -53 -107 -111 -60 -57 -112 -109 -118 -115 -70 -73 -121
-127 -235 -245 -127 -133 -125 -131 45 37 99 97 191 179 204 183 14 4 19 10
13 14 -7 4 35 53 104 121 l115 115 -4 -75 c-2 -41 -12 -109 -21 -150 -18 -74
-18 -199 0 -258 5 -19 3 -21 -12 -16 -13 4 -10 -2 9 -16 20 -17 27 -30 27 -58
0 -25 3 -32 9 -23 5 7 11 9 13 5 3 -5 2 -2 -1 6 -3 8 -7 115 -9 238 -2 192 -1
223 13 228 8 3 15 13 15 21 0 9 -6 13 -15 9 -12 -4 -15 3 -15 36 0 37 2 39 17
27 30 -25 144 -144 160 -166 8 -13 22 -23 30 -23 8 0 11 -5 8 -10 -3 -6 1 -13
10 -17 9 -3 85 -74 168 -157 84 -83 168 -164 187 -180 19 -16 -47 53 -147 155
-109 109 -183 192 -184 204 0 11 -3 14 -6 7 -7 -18 -23 -4 -23 21 0 14 -3 18
-8 10 -5 -9 -40 19 -107 88 l-100 100 351 -3 350 -3 75 -37 c83 -41 150 -103
185 -169 13 -24 23 -40 24 -36 0 4 -11 30 -25 56 -28 56 -86 107 -177 157
l-63 35 100 -3 c79 -2 100 1 100 12 0 7 -6 15 -14 18 -8 3 -11 0 -7 -7 5 -8
-24 -11 -103 -11 -64 0 -112 4 -116 10 -4 6 -10 8 -15 5 -5 -3 -42 4 -82 15
-97 28 -291 37 -404 20 -57 -9 -84 -18 -84 -27 0 -7 7 -13 15 -13 8 0 15 4 15
9 0 31 241 41 385 16 164 -29 133 -34 -195 -35 l-314 0 154 155 c104 104 157
150 162 142 5 -8 8 -5 8 8 0 27 355 383 363 364 3 -8 6 -4 6 9 1 19 -3 23 -21
20 -13 -2 -22 -8 -21 -14 1 -6 -80 -92 -180 -192 -100 -100 -247 -247 -327
-328 -125 -127 -145 -144 -148 -124 -2 12 0 25 6 29 30 20 76 263 70 374 -1
37 1 67 6 67 5 0 3 6 -3 14 -6 7 -20 39 -31 72 -11 32 -27 68 -35 81 -18 27
-19 37 -2 27 8 -5 7 -2 -2 9 -8 10 -19 16 -25 14 -6 -2 -31 9 -55 25 -25 15
-49 28 -55 28 -5 0 12 -14 38 -31z m126 -153 c11 -34 18 -70 14 -79 -3 -10 -1
-17 5 -17 34 0 -11 -358 -51 -404 -4 -6 -8 122 -8 283 0 176 4 290 9 286 5 -3
19 -34 31 -69z m-50 -943 c0 -104 -3 -154 -10 -147 -17 17 -23 155 -10 232 6
39 14 72 16 72 2 0 4 -71 4 -157z"/>
<path d="M1480 1329 c63 -62 133 -192 123 -230 -4 -14 -2 -20 4 -16 17 10 33
-73 33 -165 0 -81 -12 -118 -43 -139 -5 -4 -7 -13 -5 -20 3 -8 16 7 32 34 27
46 28 51 22 150 -8 137 -10 161 -17 167 -3 3 -22 41 -43 85 -37 81 -76 129
-131 167 -16 12 -5 -3 25 -33z"/>
<path d="M1790 1341 c0 -6 5 -13 10 -16 13 -8 60 -100 71 -139 5 -17 4 -36 -2
-47 -7 -15 -6 -17 6 -13 12 5 15 -3 15 -44 0 -111 -38 -222 -92 -267 -37 -31
-36 -41 1 -14 60 44 101 159 101 280 0 45 3 58 13 53 6 -4 2 4 -9 17 -12 13
-25 38 -28 55 -6 28 -72 144 -82 144 -2 0 -4 -4 -4 -9z"/>
<path d="M10 1320 c-11 -7 0 -10 37 -10 46 0 56 -4 87 -35 65 -64 62 -164 -7
-238 -46 -49 -75 -67 -106 -67 -12 0 -21 -4 -21 -9 0 -16 69 6 104 33 24 18
36 22 39 13 3 -6 6 -3 6 8 1 12 10 38 21 60 28 55 27 132 -3 176 -43 63 -116
96 -157 69z"/>
<path d="M3000 1253 c0 -13 37 -38 68 -46 24 -6 128 25 146 43 15 15 4 12 -45
-9 -59 -26 -118 -25 -146 2 -13 11 -23 16 -23 10z"/>
<path d="M4357 1249 c-9 -5 -23 -7 -30 -3 -6 4 -4 -1 5 -12 11 -13 21 -55 29
-129 7 -60 15 -101 17 -91 2 11 -1 61 -8 112 -8 68 -8 98 0 113 12 24 12 24
-13 10z"/>
<path d="M2957 1179 c-3 -23 -15 -52 -28 -65 -12 -13 -20 -26 -18 -29 13 -12
55 55 58 93 3 54 -5 54 -12 1z"/>
<path d="M3183 1183 c-40 -39 -58 -86 -43 -110 10 -16 10 -16 5 3 -7 28 15 80
27 62 5 -9 8 -6 8 9 0 12 10 31 22 43 12 11 19 20 15 20 -3 0 -19 -12 -34 -27z"/>
<path d="M38 1163 c-4 -18 -15 -33 -25 -36 -15 -4 -15 -5 -2 -6 23 -1 41 24
37 51 -3 20 -4 19 -10 -9z"/>
<path d="M3015 1180 c-5 -8 -2 -16 9 -22 26 -15 19 -31 -25 -56 -22 -13 -39
-26 -36 -28 6 -6 42 13 70 35 15 13 21 11 49 -15 18 -16 26 -21 19 -11 -7 9
-10 17 -5 18 5 0 -1 4 -13 9 -33 13 -29 24 20 54 27 17 33 24 17 20 -13 -4
-30 -13 -38 -20 -20 -20 -42 -17 -51 8 -6 16 -10 18 -16 8z"/>
<path d="M3720 1165 c0 -8 125 -87 188 -119 29 -15 51 -30 48 -34 -2 -4 8 -7
22 -8 15 0 41 -3 57 -7 27 -6 26 -6 -4 6 -19 7 -36 18 -39 25 -2 6 -10 8 -17
5 -15 -5 -144 60 -200 101 -41 30 -55 38 -55 31z"/>
<path d="M3005 1060 c11 -5 31 -9 44 -9 14 -1 33 -9 43 -18 17 -15 18 -15 13
-1 -8 19 -56 38 -94 37 -23 0 -24 -1 -6 -9z"/>
<path d="M4376 971 c-9 -15 -204 -35 -219 -23 -10 9 -13 5 -13 -13 0 -26 6
-31 22 -16 5 5 53 14 108 21 81 10 100 9 107 -2 6 -9 9 -4 9 15 0 28 -5 34
-14 18z"/>
<path d="M3825 899 c-121 -15 -229 -28 -239 -28 -11 -1 -17 -4 -14 -7 6 -5
531 52 553 61 30 11 -106 -1 -300 -26z"/>
<path d="M4075 810 c-10 -11 -27 -20 -37 -20 -11 0 -17 -4 -13 -10 17 -28
-159 -78 -325 -92 -74 -6 -139 -15 -145 -20 -6 -6 3 -8 25 -4 19 3 73 8 120
11 102 7 235 37 290 65 21 11 46 20 55 20 8 0 15 5 15 12 0 6 10 22 22 35 12
13 19 23 16 23 -3 0 -13 -9 -23 -20z"/>
<path d="M1980 790 c-57 -12 -100 -30 -100 -41 0 -13 11 -11 30 6 26 24 154
38 283 32 66 -3 125 -11 132 -17 8 -7 18 -9 24 -6 19 12 147 -26 219 -64 39
-22 72 -36 72 -32 0 17 -152 83 -236 103 -101 24 -348 35 -424 19z"/>
<path d="M4159 738 c-15 -15 -25 -29 -22 -31 2 -3 -13 -22 -33 -42 -42 -42
-160 -102 -271 -137 -40 -13 -73 -26 -73 -30 0 -10 161 47 246 87 44 21 86 51
112 79 23 25 43 39 46 33 2 -7 5 -1 5 14 1 14 6 30 13 37 6 6 10 13 7 15 -2 1
-16 -10 -30 -25z"/>
<path d="M4297 723 c-4 -3 -7 -15 -7 -25 0 -10 -7 -21 -16 -25 -11 -4 -12 -8
-4 -13 10 -6 10 -16 0 -46 -35 -109 -88 -172 -227 -273 -73 -53 -98 -77 -45
-44 80 51 184 138 215 181 20 26 47 80 60 120 13 39 26 70 29 67 2 -2 4 11 4
30 0 38 0 38 -9 28z"/>
<path d="M1540 590 c0 -18 -61 -49 -160 -82 -92 -31 -100 -32 -265 -32 -189 0
-262 13 -438 78 -50 19 -83 28 -73 21 27 -21 186 -72 296 -95 52 -12 100 -26
107 -32 7 -6 13 -6 13 -1 0 5 46 9 103 10 56 1 134 8 173 17 84 18 201 61 224
81 9 8 22 15 28 15 7 0 12 7 12 15 0 8 -4 15 -10 15 -5 0 -10 -5 -10 -10z"/>
<path d="M1848 573 c-21 -2 -38 -9 -38 -15 0 -6 8 -7 17 -3 38 14 143 17 209
6 77 -14 267 -89 258 -102 -3 -5 3 -9 13 -9 24 0 164 -96 249 -171 l69 -61
-72 71 c-167 164 -398 278 -577 285 -50 2 -108 2 -128 -1z"/>
<path d="M660 429 c0 -19 164 -76 285 -99 113 -22 291 -3 370 38 17 9 34 16
39 17 10 0 21 25 11 25 -3 0 -18 -9 -33 -20 -15 -11 -54 -27 -87 -36 -71 -19
-251 -32 -242 -17 3 5 -6 8 -22 5 -39 -5 -193 34 -263 67 -32 15 -58 24 -58
20z"/>
<path d="M1739 359 c-10 -56 -10 -82 0 -122 6 -29 13 -59 15 -67 1 -8 12 -26
24 -40 12 -14 40 -49 62 -78 22 -28 46 -52 52 -52 7 0 -4 17 -23 37 -46 49
-79 97 -79 116 0 8 -6 17 -13 20 -39 15 -46 179 -11 233 14 21 15 24 1 24 -11
0 -19 -20 -28 -71z"/>
<path d="M1530 376 c-20 -54 -32 -163 -28 -252 3 -51 1 -95 -4 -96 -4 -2 1 -9
13 -16 21 -13 21 -12 15 15 -25 103 -12 307 21 345 9 11 11 18 4 23 -6 3 -15
-5 -21 -19z"/>
<path d="M3270 316 c6 -8 35 -30 63 -48 29 -18 53 -36 55 -40 2 -4 12 -18 23
-30 l20 -23 -6 23 c-6 21 -4 22 22 15 65 -18 160 1 171 35 2 8 -8 5 -30 -8
-42 -25 -118 -28 -118 -4 0 13 -7 15 -34 11 -28 -4 -44 2 -100 39 -68 46 -87
54 -66 30z"/>
<path d="M3277 168 c18 -18 42 -55 54 -83 12 -27 24 -44 26 -37 4 10 9 9 24
-4 10 -9 19 -23 19 -31 0 -25 50 -14 75 16 14 16 39 32 57 36 32 7 32 7 8 14
-17 5 -21 9 -12 14 6 5 17 18 23 30 11 22 11 22 -14 -1 -23 -22 -26 -22 -30
-5 -3 11 -5 6 -6 -13 -1 -37 -37 -74 -72 -74 -16 0 -33 11 -47 29 l-22 30 23
4 c16 3 13 5 -10 6 -18 0 -33 5 -33 9 0 14 -71 92 -83 92 -6 0 3 -15 20 -32z"/>
<path d="M3674 128 c-30 -37 -54 -88 -53 -115 0 -10 7 1 16 25 8 23 30 58 48
77 18 20 29 37 25 40 -5 3 -21 -10 -36 -27z"/>
<path d="M3247 91 c3 -31 1 -51 -6 -55 -6 -4 -11 -15 -11 -24 0 -13 2 -13 15
4 11 15 14 16 15 4 0 -9 9 -16 21 -17 19 -2 20 0 6 15 -8 9 -20 41 -27 70 -6
28 -14 52 -16 52 -1 0 0 -22 3 -49z"/>
</g>
</svg>
